<svg width="32" height="32" viewBox="0 0 32 32" fill="none" xmlns="http://www.w3.org/2000/svg">
<mask id="mask0_1_97" style="mask-type:alpha" maskUnits="userSpaceOnUse" x="2" y="2" width="28" height="28">
<rect x="2" y="2" width="28" height="28" fill="#D9D9D9"/>
</mask>
<g mask="url(#mask0_1_97)">
<path d="M13.8136 16.5832C13.4708 16.5832 13.1891 16.4475 12.9687 16.176C12.7482 15.9046 12.6851 15.6073 12.7794 15.2842L13.2191 13.0093C13.3447 12.3347 13.673 11.7895 14.204 11.3737C14.735 10.9579 15.3302 10.75 15.9896 10.75C16.6644 10.75 17.2672 10.9579 17.7982 11.3737C18.3292 11.7895 18.6575 12.3347 18.7831 13.0093L19.2229 15.2842C19.2976 15.6307 19.2288 15.9338 19.0162 16.1936C18.8037 16.4533 18.5278 16.5832 18.1886 16.5832H13.8136ZM14.3678 15.0666H17.6344L17.2844 13.3166C17.2261 13.0055 17.075 12.7527 16.8312 12.5583C16.5874 12.3639 16.3103 12.2666 15.9999 12.2666C15.6896 12.2666 15.4129 12.3639 15.1699 12.5583C14.9268 12.7527 14.7761 13.0055 14.7178 13.3166L14.3678 15.0666ZM6.23649 17.815C5.8734 17.8344 5.56227 17.7606 5.3031 17.5935C5.04392 17.4264 4.87212 17.1811 4.78769 16.8574C4.7488 16.7165 4.74095 16.5668 4.76413 16.4083C4.78732 16.2497 4.83033 16.1124 4.89313 15.9962C4.89313 15.9962 4.88341 15.9695 4.86396 15.9236C4.81312 15.8653 4.73669 15.6685 4.63469 15.3332C4.61106 15.1435 4.63573 14.9679 4.70868 14.8064C4.78164 14.6448 4.88425 14.4983 5.01654 14.3666C5.02402 14.3666 5.03972 14.3412 5.06364 14.2903C5.09738 14.0135 5.22323 13.767 5.4412 13.551C5.65915 13.3349 5.91322 13.2269 6.20339 13.2269C6.27817 13.2269 6.43978 13.268 6.68822 13.3503L6.75531 13.3324C6.83756 13.2463 6.93802 13.177 7.05669 13.1243C7.17534 13.0715 7.30141 13.0452 7.43492 13.0452C7.6016 13.0452 7.75622 13.0736 7.89879 13.1304C8.04137 13.1873 8.15426 13.2772 8.23744 13.4002C8.25408 13.4002 8.26657 13.4046 8.27489 13.4134C8.28321 13.4222 8.2957 13.4266 8.31234 13.4266C8.51635 13.446 8.6981 13.5176 8.85758 13.6414C9.01707 13.7652 9.14588 13.9281 9.24404 14.13C9.281 14.2444 9.2965 14.3535 9.29053 14.4575C9.28454 14.5614 9.2621 14.6574 9.22322 14.7454C9.22322 14.7551 9.23294 14.7857 9.25238 14.8371C9.3541 14.9423 9.43635 15.0625 9.49916 15.1979C9.56199 15.3332 9.5934 15.4772 9.5934 15.6298C9.5934 15.6462 9.55601 15.801 9.48122 16.0942C9.46926 16.1181 9.46926 16.1532 9.48122 16.1996C9.48871 16.2221 9.50441 16.3552 9.52833 16.599C9.52833 16.9328 9.38219 17.2189 9.08992 17.4573C8.79763 17.6958 8.46216 17.815 8.0835 17.815H6.23649ZM24.8402 17.8486C24.341 17.8486 23.9191 17.6749 23.5744 17.3274C23.2296 16.9799 23.0572 16.5621 23.0572 16.0741C23.0572 15.8967 23.0862 15.731 23.1442 15.5771C23.2022 15.4232 23.2712 15.2732 23.3511 15.1272L22.5335 14.421C22.4055 14.289 22.3763 14.1378 22.4458 13.9673C22.5153 13.7968 22.6599 13.7115 22.8795 13.7115H24.8228C25.3091 13.7115 25.7242 13.8838 26.0682 14.2282C26.4121 14.5727 26.5841 14.9868 26.5841 15.4705V15.9102C26.5841 16.4386 26.4182 16.8938 26.0865 17.2757C25.7548 17.6577 25.3393 17.8486 24.8402 17.8486ZM2.58447 22.7531V21.4182C2.58447 20.4549 3.03976 19.7415 3.95035 19.2778C4.86089 18.8141 5.94555 18.5823 7.20433 18.5823C7.48083 18.5823 7.75743 18.5987 8.03415 18.6317C8.31086 18.6646 8.58757 18.7102 8.86426 18.7685C8.56662 19.0736 8.34153 19.464 8.18896 19.9397C8.0364 20.4155 7.96012 20.8533 7.96012 21.2532V22.7531H2.58447ZM9.58447 22.7531V21.3094C9.58447 20.302 10.1239 19.4958 11.2029 18.8908C12.2818 18.2858 13.8822 17.9832 16.0042 17.9832C18.1246 17.9832 19.7236 18.2849 20.8012 18.8883C21.8789 19.4916 22.4178 20.2938 22.4178 21.2948V22.7531H9.58447ZM24.8094 18.5823C26.0636 18.5823 27.1452 18.8141 28.0542 19.2778C28.9632 19.7415 29.4178 20.4549 29.4178 21.4182V22.7531H24.0421V21.2532C24.0421 20.8533 23.9707 20.4155 23.8278 19.9397C23.685 19.464 23.4513 19.0736 23.1267 18.7685C23.4034 18.7102 23.6806 18.6646 23.9583 18.6317C24.236 18.5987 24.5197 18.5823 24.8094 18.5823ZM15.9997 19.4999C14.6515 19.4999 13.6195 19.6267 12.9038 19.8802C12.1881 20.1337 11.588 20.5447 11.1034 21.113V21.2364H20.8877V21.113C20.3911 20.5447 19.7898 20.1337 19.0838 19.8802C18.3778 19.6267 17.3498 19.4999 15.9997 19.4999Z" fill="white"/>
</g>
</svg>
